<svg width="223" height="131" viewBox="0 0 223 131" fill="none" xmlns="http://www.w3.org/2000/svg">
<g id="Amazon_Web_Services_Logo 1">
<g id="Group">
<path id="Vector" d="M63.3791 47.7936C63.3791 50.4568 63.6725 52.6162 64.186 54.1997C64.7729 55.7832 65.5064 57.5107 66.5334 59.3821C66.9002 59.9579 67.0469 60.5338 67.0469 61.0376C67.0469 61.7574 66.6068 62.4772 65.6531 63.1969L61.0317 66.22C60.3716 66.6519 59.7114 66.8678 59.1245 66.8678C58.391 66.8678 57.6574 66.5079 56.9239 65.8601C55.8969 64.7805 55.0166 63.6288 54.2831 62.4772C53.5495 61.2535 52.816 59.8859 52.0091 58.2305C46.2873 64.8524 39.0985 68.1634 30.4426 68.1634C24.2808 68.1634 19.366 66.436 15.7716 62.981C12.1771 59.5261 10.3433 54.9195 10.3433 49.1612C10.3433 43.0431 12.5439 38.0766 17.0186 34.3338C21.4933 30.5909 27.435 28.7195 34.9906 28.7195C37.4847 28.7195 40.0521 28.9354 42.7663 29.2953C45.4804 29.6552 48.2679 30.231 51.2021 30.8788V25.6244C51.2021 20.1541 50.0285 16.3392 47.7544 14.1079C45.4071 11.8766 41.4459 10.7969 35.7975 10.7969C33.2301 10.7969 30.5893 11.0848 27.8752 11.7327C25.161 12.3805 22.5202 13.1722 19.9528 14.1799C18.7791 14.6838 17.8989 14.9717 17.3854 15.1156C16.8719 15.2596 16.5051 15.3316 16.2117 15.3316C15.1847 15.3316 14.6712 14.6118 14.6712 13.1002V9.57331C14.6712 8.42166 14.8179 7.55793 15.1847 7.05408C15.5515 6.55023 16.2117 6.04639 17.2387 5.54254C19.8061 4.24694 22.887 3.16727 26.4814 2.30353C30.0758 1.36782 33.8903 0.935948 37.9248 0.935948C46.6541 0.935948 53.036 2.87935 57.1439 6.76617C61.1785 10.653 63.2324 16.5552 63.2324 24.4728V47.7936H63.3791ZM33.5969 58.7343C36.0176 58.7343 38.5117 58.3024 41.1525 57.4387C43.7933 56.575 46.1406 54.9914 48.1212 52.8321C49.2949 51.4645 50.1752 49.953 50.6153 48.2255C51.0554 46.498 51.3489 44.4107 51.3489 41.9634V38.9403C49.2216 38.4365 46.9475 38.0046 44.6002 37.7167C42.2528 37.4288 39.9788 37.2849 37.7048 37.2849C32.79 37.2849 29.1956 38.2206 26.7748 40.164C24.3541 42.1074 23.1804 44.8425 23.1804 48.4414C23.1804 51.8244 24.0607 54.3436 25.8946 56.0711C27.6551 57.8706 30.2225 58.7343 33.5969 58.7343ZM92.5012 66.5079C91.1808 66.5079 90.3005 66.292 89.7137 65.7881C89.1268 65.3563 88.6133 64.3486 88.1732 62.981L70.9347 7.34199C70.4946 5.90243 70.2745 4.96672 70.2745 4.46287C70.2745 3.31122 70.8614 2.66342 72.035 2.66342H79.2239C80.6176 2.66342 81.5712 2.87935 82.0847 3.3832C82.6716 3.81507 83.1117 4.82276 83.5518 6.19034L95.8755 53.8398L107.319 6.19034C107.686 4.75078 108.126 3.81507 108.713 3.3832C109.3 2.95133 110.326 2.66342 111.647 2.66342H117.515C118.909 2.66342 119.863 2.87935 120.45 3.3832C121.036 3.81507 121.55 4.82276 121.843 6.19034L133.433 54.4156L146.124 6.19034C146.564 4.75078 147.077 3.81507 147.591 3.3832C148.178 2.95133 149.131 2.66342 150.452 2.66342H157.274C158.448 2.66342 159.108 3.23924 159.108 4.46287C159.108 4.82276 159.034 5.18265 158.961 5.61452C158.888 6.04639 158.741 6.62221 158.448 7.41397L140.769 63.053C140.329 64.4925 139.815 65.4283 139.228 65.8601C138.642 66.292 137.688 66.5799 136.441 66.5799H130.132C128.739 66.5799 127.785 66.364 127.198 65.8601C126.611 65.3563 126.098 64.4206 125.804 62.981L114.434 16.5552L103.138 62.909C102.771 64.3486 102.331 65.2843 101.744 65.7881C101.157 66.292 100.13 66.5079 98.8097 66.5079H92.5012ZM186.763 68.4513C182.948 68.4513 179.134 68.0195 175.466 67.1557C171.798 66.292 168.937 65.3563 167.03 64.2766C165.856 63.6288 165.05 62.909 164.756 62.2612C164.463 61.6134 164.316 60.8936 164.316 60.2458V56.575C164.316 55.0634 164.903 54.3436 166.003 54.3436C166.443 54.3436 166.883 54.4156 167.324 54.5596C167.764 54.7035 168.424 54.9914 169.157 55.2794C171.651 56.359 174.366 57.2228 177.226 57.7986C180.161 58.3744 183.022 58.6623 185.956 58.6623C190.577 58.6623 194.172 57.8706 196.666 56.287C199.16 54.7035 200.48 52.4002 200.48 49.4491C200.48 47.4338 199.82 45.7783 198.5 44.4107C197.179 43.0431 194.685 41.8195 191.091 40.6678L180.454 37.4288C175.099 35.7733 171.138 33.3261 168.717 30.087C166.297 26.92 165.05 23.3931 165.05 19.6502C165.05 16.6272 165.71 13.964 167.03 11.6607C168.35 9.35738 170.111 7.34199 172.312 5.75848C174.512 4.10298 177.006 2.87935 179.941 2.01562C182.875 1.15188 185.956 0.791992 189.183 0.791992C190.797 0.791992 192.484 0.86397 194.098 1.0799C195.785 1.29584 197.326 1.58375 198.866 1.87166C200.333 2.23155 201.727 2.59144 203.048 3.02331C204.368 3.45518 205.395 3.88705 206.128 4.31892C207.155 4.89474 207.889 5.47056 208.329 6.11837C208.769 6.69419 208.989 7.48595 208.989 8.49364V11.8766C208.989 13.3881 208.402 14.1799 207.302 14.1799C206.715 14.1799 205.762 13.892 204.515 13.3162C200.333 11.4447 195.639 10.509 190.43 10.509C186.249 10.509 182.948 11.1568 180.674 12.5244C178.4 13.892 177.226 15.9794 177.226 18.9305C177.226 20.9458 177.96 22.6733 179.427 24.0409C180.894 25.4085 183.608 26.7761 187.496 27.9997L197.913 31.2387C203.194 32.8942 207.009 35.1975 209.283 38.1486C211.557 41.0997 212.657 44.4827 212.657 48.2255C212.657 51.3206 211.997 54.1277 210.75 56.575C209.429 59.0222 207.669 61.1816 205.395 62.909C203.121 64.7085 200.407 66.0041 197.252 66.9398C193.951 67.9475 190.504 68.4513 186.763 68.4513Z" fill="white"/>
<g id="Group_2">
<path id="Vector_2" fill-rule="evenodd" clip-rule="evenodd" d="M200.627 103.433C176.493 120.923 141.429 130.208 111.28 130.208C69.0274 130.208 30.956 114.877 2.20074 89.3968C-0.0732758 87.3814 1.98067 84.6463 4.69482 86.2298C35.7975 103.936 74.1622 114.661 113.847 114.661C140.622 114.661 170.038 109.191 197.106 97.9622C201.14 96.1627 204.588 100.553 200.627 103.433Z" fill="#FF9900"/>
<path id="Vector_3" fill-rule="evenodd" clip-rule="evenodd" d="M210.677 92.2039C207.596 88.3171 190.284 90.3325 182.435 91.2682C180.087 91.5561 179.721 89.5408 181.848 88.0292C195.639 78.5281 218.305 81.2633 220.946 84.4303C223.587 87.6693 220.213 109.911 207.302 120.563C205.322 122.219 203.414 121.355 204.295 119.196C207.229 112.07 213.757 96.0188 210.677 92.2039Z" fill="#FF9900"/>
</g>
</g>
</g>
</svg>
