<?xml version="1.0" standalone="no"?>
<!DOCTYPE svg PUBLIC "-//W3C//DTD SVG 20010904//EN"
 "http://www.w3.org/TR/2001/REC-SVG-20010904/DTD/svg10.dtd">
<svg version="1.0" xmlns="http://www.w3.org/2000/svg"
 width="1280.000000pt" height="1022.000000pt" viewBox="0 0 1280.000000 1022.000000"
 preserveAspectRatio="xMidYMid meet">
<metadata>
Created by potrace 1.15, written by Peter Selinger 2001-2017
</metadata>
<g transform="translate(0.000000,1022.000000) scale(0.100000,-0.100000)"
fill="#000000" stroke="none">
<path d="M10035 10210 c-271 -31 -539 -120 -725 -242 -90 -59 -202 -175 -283
-293 -165 -240 -382 -574 -484 -745 -268 -447 -377 -550 -851 -810 -240 -131
-312 -175 -407 -245 -201 -149 -538 -456 -742 -677 -289 -313 -392 -455 -658
-913 -272 -467 -370 -601 -619 -850 -179 -178 -346 -321 -701 -600 -454 -357
-628 -505 -802 -682 -124 -126 -205 -223 -423 -508 -350 -457 -431 -541 -965
-1010 -93 -82 -363 -325 -600 -539 -236 -215 -475 -431 -530 -481 -55 -50
-179 -158 -275 -240 -105 -89 -335 -310 -574 -549 l-400 -399 80 -40 c216
-110 434 -182 689 -229 99 -18 445 -15 625 6 80 9 226 23 325 32 l180 16 40
37 c319 290 509 461 700 631 127 113 313 284 415 380 310 294 341 323 454 424
128 114 284 240 411 331 92 66 411 260 486 297 213 102 1040 178 1364 124 226
-37 354 -99 535 -258 63 -55 138 -115 165 -133 54 -34 154 -75 185 -75 18 0
19 -7 19 -89 0 -53 5 -99 12 -113 7 -13 121 -135 253 -273 290 -301 348 -359
495 -494 124 -114 170 -175 201 -265 24 -71 26 -165 5 -207 -30 -57 -153 -109
-300 -124 -33 -4 -81 -13 -107 -21 -45 -15 -51 -14 -135 12 -110 34 -200 38
-258 9 -46 -22 -225 -191 -225 -211 0 -8 2 -14 4 -14 2 0 50 29 106 64 124 79
164 89 289 74 l91 -11 0 -41 c0 -103 72 -123 285 -80 39 8 140 28 225 44 85
17 178 36 205 44 85 23 251 -8 497 -92 l111 -38 13 -53 c26 -98 46 -113 58
-44 10 63 17 68 72 53 27 -6 97 -14 155 -17 119 -6 217 10 306 51 l52 25 51
-70 c47 -62 70 -83 70 -61 0 4 -12 48 -26 96 -14 49 -23 90 -20 93 2 3 43 13
89 24 l85 19 93 -44 c310 -144 505 -151 991 -32 80 20 149 36 154 36 5 0 60
-29 123 -65 63 -36 117 -63 119 -60 6 6 -51 77 -96 117 -88 79 -193 118 -323
118 -109 1 -63 20 53 23 99 2 131 -6 201 -51 20 -14 40 -22 44 -19 11 12 -113
126 -159 147 -54 25 -103 25 -253 1 -237 -38 -302 -44 -440 -45 -167 -1 -241
13 -351 65 -77 36 -95 52 -361 316 -284 282 -456 468 -632 688 l-98 122 18 69
c34 130 20 346 -35 526 l-14 47 42 27 c209 138 425 352 588 584 118 167 241
415 308 619 36 111 102 259 196 440 168 326 263 463 639 926 318 391 385 484
385 536 0 39 35 165 110 394 90 276 136 433 168 574 25 111 26 131 27 441 1
188 7 357 13 400 7 41 19 125 28 185 34 230 98 555 164 825 17 69 44 185 60
258 86 381 169 477 520 600 228 80 506 154 953 253 130 29 237 56 237 60 0 9
-361 192 -552 280 -391 179 -699 274 -1057 323 -102 15 -121 21 -176 55 -131
83 -283 149 -434 188 -81 21 -124 25 -281 28 -102 2 -221 0 -265 -5z m-2352
-8274 c8 -81 50 -173 128 -274 103 -136 380 -408 604 -592 116 -96 264 -228
330 -295 129 -130 330 -353 324 -359 -4 -3 -260 -71 -316 -83 -23 -5 -235 51
-372 99 -104 36 -227 100 -307 159 -103 75 -261 238 -387 398 -67 84 -184 226
-260 315 -234 273 -303 398 -295 536 2 47 10 74 25 96 l22 31 148 8 c81 4 182
11 223 15 140 13 126 19 133 -54z"/>
</g>
</svg>
