<svg width="150" height="150" viewBox="0 0 150 150" fill="none" xmlns="http://www.w3.org/2000/svg">
<g id="Unofficial_JavaScript_logo_2 1">
<g clip-path="url(#clip0_54_106)">
<path id="Vector" d="M150 0H0V150H150V0Z" fill="#F7DF1E"/>
<path id="Vector_2" d="M100.762 117.188C103.783 122.121 107.714 125.747 114.667 125.747C120.507 125.747 124.238 122.828 124.238 118.795C124.238 113.962 120.405 112.25 113.976 109.438L110.452 107.926C100.281 103.593 93.5237 98.1641 93.5237 86.6879C93.5237 76.1165 101.578 68.0688 114.167 68.0688C123.128 68.0688 129.571 71.1879 134.214 79.3546L123.238 86.4022C120.821 82.0688 118.214 80.3617 114.167 80.3617C110.038 80.3617 107.421 82.9808 107.421 86.4022C107.421 90.6308 110.04 92.3427 116.088 94.9617L119.612 96.4712C131.588 101.607 138.35 106.843 138.35 118.614C138.35 131.305 128.381 138.257 114.993 138.257C101.902 138.257 93.4451 132.019 89.307 123.843L100.762 117.188ZM50.9689 118.409C53.1832 122.338 55.1975 125.659 60.0404 125.659C64.6713 125.659 67.5927 123.847 67.5927 116.802V68.8736H81.688V116.993C81.688 131.588 73.1308 138.231 60.6404 138.231C49.3546 138.231 42.8189 132.39 39.4951 125.356L50.9689 118.409Z" fill="black"/>
</g>
</g>
<defs>
<clipPath id="clip0_54_106">
<rect width="150" height="150" rx="10" fill="white"/>
</clipPath>
</defs>
</svg>
