<svg width="150" height="150" viewBox="0 0 150 150" fill="none" xmlns="http://www.w3.org/2000/svg">
<g id="nextjs-icon 1" clip-path="url(#clip0_54_97)">
<g id="Group">
<path id="Vector" d="M70.088 0.0403655C69.7654 0.0696867 68.739 0.172311 67.8152 0.245614C46.5103 2.16615 26.5543 13.6601 13.915 31.3261C6.87683 41.1487 2.37537 52.2908 0.674487 64.0925C0.0733138 68.2122 0 69.429 0 75.0147C0 80.6004 0.0733138 81.8172 0.674487 85.9368C4.75073 114.1 24.7947 137.762 51.9795 146.529C56.8475 148.098 61.9795 149.168 67.8152 149.813C70.088 150.062 79.912 150.062 82.1848 149.813C92.2581 148.699 100.792 146.207 109.208 141.911C110.499 141.251 110.748 141.075 110.572 140.929C110.455 140.841 104.956 133.467 98.3578 124.553L86.3636 108.353L71.3343 86.1128C63.0645 73.8858 56.261 63.8873 56.2023 63.8873C56.1437 63.8726 56.085 73.7539 56.0557 85.8195C56.0117 106.945 55.9971 107.796 55.7331 108.294C55.3519 109.013 55.0587 109.306 54.4428 109.628C53.9736 109.863 53.563 109.907 51.349 109.907H48.8123L48.1378 109.482C47.6979 109.203 47.3754 108.837 47.1554 108.412L46.8475 107.752L46.8768 78.3573L46.9208 48.9481L47.3754 48.3764C47.61 48.0685 48.1085 47.6727 48.4604 47.4821C49.0616 47.1889 49.2962 47.1595 51.8328 47.1595C54.824 47.1595 55.3226 47.2768 56.0997 48.1271C56.3196 48.3617 64.4575 60.618 74.1936 75.3812C83.9296 90.1444 97.2434 110.303 103.783 120.199L115.66 138.187L116.261 137.791C121.584 134.331 127.214 129.406 131.672 124.274C141.158 113.381 147.273 100.099 149.326 85.9368C149.927 81.8172 150 80.6004 150 75.0147C150 69.429 149.927 68.2122 149.326 64.0925C145.249 35.9295 125.205 12.2673 98.0205 3.50027C93.2258 1.94624 88.1232 0.87602 82.4047 0.230953C80.9971 0.0843474 71.305 -0.0769193 70.088 0.0403655ZM100.792 45.4003C101.496 45.7521 102.067 46.4265 102.273 47.1302C102.39 47.5114 102.419 55.6627 102.39 74.0324L102.346 100.392L97.6979 93.2671L93.0352 86.1421V66.9807C93.0352 54.5925 93.0938 47.6287 93.1818 47.2915C93.4164 46.4705 93.9296 45.8254 94.6334 45.4443C95.2346 45.1364 95.4545 45.1071 97.7566 45.1071C99.9267 45.1071 100.308 45.1364 100.792 45.4003Z" fill="white"/>
</g>
</g>
<defs>
<clipPath id="clip0_54_97">
<rect width="150" height="150" fill="white"/>
</clipPath>
</defs>
</svg>
