<svg width="132" height="118" viewBox="0 0 132 118" fill="none" xmlns="http://www.w3.org/2000/svg">
<path id="Vector" d="M66 68.3749C63.5136 68.3749 61.129 67.3872 59.3709 65.629C57.6127 63.8708 56.625 61.4863 56.625 58.9999C56.625 56.5135 57.6127 54.1289 59.3709 52.3707C61.129 50.6126 63.5136 49.6249 66 49.6249C68.4864 49.6249 70.871 50.6126 72.6291 52.3707C74.3873 54.1289 75.375 56.5135 75.375 58.9999C75.375 61.4863 74.3873 63.8708 72.6291 65.629C70.871 67.3872 68.4864 68.3749 66 68.3749ZM62.7 87.0874C63.7938 88.3999 64.8937 89.6749 66 90.8936C67.1063 89.6749 68.2062 88.4061 69.3 87.0874C67.1002 87.1341 64.8998 87.1341 62.7 87.0874V87.0874ZM50.2313 86.3061C45.4316 85.8067 40.6637 85.0388 35.95 84.0061C35.4812 86.1936 35.125 88.3186 34.8875 90.3561C33.7 100.25 35.3563 106.262 37.875 107.712C40.3937 109.169 46.425 107.594 54.4063 101.625C56.05 100.394 57.7063 99.0249 59.3688 97.5311C56.1156 93.9631 53.065 90.2155 50.2313 86.3061V86.3061ZM96.05 84.0061C91.5688 85.0061 86.7812 85.7811 81.7687 86.3061C78.935 90.2155 75.8844 93.9631 72.6312 97.5311C74.2937 99.0311 75.95 100.394 77.5937 101.625C85.575 107.594 91.6063 109.169 94.125 107.712C96.6437 106.262 98.2938 100.25 97.1188 90.3561C96.8608 88.2245 96.5063 86.1056 96.0563 84.0061H96.05ZM105.112 81.5874C108.719 98.0811 106.825 111.212 98.8125 115.837C90.8 120.462 78.4812 115.537 66 104.169C53.5188 115.537 41.2 120.456 33.1875 115.831C25.175 111.206 23.2813 98.0811 26.8813 81.5811C10.7938 76.4624 0.375 68.2499 0.375 58.9999C0.375 49.7499 10.7938 41.5436 26.8813 36.4124C23.2813 19.9186 25.175 6.78737 33.1875 2.16237C41.2 -2.46263 53.5188 2.46237 66 13.8311C78.4812 2.46237 90.8 -2.45638 98.8125 2.16862C106.825 6.79362 108.719 19.9186 105.119 36.4186C121.206 41.5374 131.625 49.7499 131.625 58.9999C131.625 68.2499 121.206 76.4561 105.119 81.5874H105.112ZM59.3625 20.4686C57.7731 19.0299 56.1193 17.6639 54.4063 16.3749C46.425 10.4061 40.3937 8.83112 37.875 10.2874C35.3563 11.7374 33.7062 17.7499 34.8812 27.6436C35.1312 29.6874 35.4812 31.8061 35.9437 33.9936C40.6596 32.9607 45.4295 32.1928 50.2313 31.6936C53.2 27.6124 56.2625 23.8561 59.3688 20.4686H59.3625ZM81.7687 31.6936C86.7812 32.2186 91.5688 32.9999 96.05 33.9936C96.5188 31.8061 96.875 29.6811 97.1125 27.6436C98.3 17.7499 96.6437 11.7374 94.125 10.2874C91.6063 8.83112 85.575 10.4061 77.5937 16.3749C75.8786 17.6638 74.2227 19.0298 72.6312 20.4686C75.7375 23.8561 78.8 27.6124 81.7687 31.6936V31.6936ZM69.3 30.9124C68.2062 29.5999 67.1063 28.3249 66 27.1061C64.8937 28.3249 63.7938 29.5936 62.7 30.9124C64.8998 30.8657 67.1002 30.8657 69.3 30.9124V30.9124ZM43.325 75.8999C42.1847 74.0193 41.0845 72.1147 40.025 70.1874C39.4312 71.7936 38.8812 73.3749 38.3812 74.9436C39.9875 75.2936 41.6375 75.6124 43.3188 75.8999H43.325ZM55.4 77.3624C62.4569 77.8865 69.5431 77.8865 76.6 77.3624C80.5825 71.5121 84.1256 65.3744 87.2 58.9999C84.1256 52.6254 80.5825 46.4877 76.6 40.6374C69.5431 40.1132 62.4569 40.1132 55.4 40.6374C51.4175 46.4877 47.8744 52.6254 44.8 58.9999C47.8744 65.3744 51.4175 71.5121 55.4 77.3624V77.3624ZM91.975 47.8124C92.5688 46.2061 93.1188 44.6249 93.6188 43.0561C91.9803 42.7006 90.334 42.3817 88.6812 42.0999C89.8194 43.9805 90.9176 45.8851 91.975 47.8124ZM29.3125 45.4811C27.1875 46.1686 25.175 46.9186 23.2875 47.7311C14.1312 51.6561 9.75 56.0936 9.75 58.9999C9.75 61.9061 14.125 66.3436 23.2875 70.2686C25.175 71.0811 27.1875 71.8311 29.3125 72.5186C30.7 68.1436 32.4187 63.6061 34.4687 58.9999C32.4989 54.5934 30.7775 50.0801 29.3125 45.4811V45.4811ZM38.375 43.0561C38.8812 44.6186 39.4312 46.2061 40.025 47.8061C41.0846 45.8809 42.1848 43.9784 43.325 42.0999C41.6375 42.3874 39.9875 42.7061 38.3812 43.0561H38.375ZM102.688 72.5186C104.813 71.8311 106.825 71.0811 108.712 70.2686C117.869 66.3436 122.25 61.9061 122.25 58.9999C122.25 56.0936 117.875 51.6561 108.712 47.7311C106.739 46.8905 104.729 46.1397 102.688 45.4811C101.3 49.8561 99.5813 54.3936 97.5313 58.9999C99.5813 63.6061 101.3 68.1374 102.688 72.5186V72.5186ZM93.625 74.9436C93.1188 73.3811 92.5688 71.7936 91.975 70.1936C90.9154 72.1188 89.8152 74.0213 88.675 75.8999C90.3625 75.6124 92.0125 75.2936 93.6188 74.9436H93.625Z" fill="#61DAFB"/>
</svg>
