<svg width="150" height="150" viewBox="0 0 150 150" fill="none" xmlns="http://www.w3.org/2000/svg">
<g id="redux-logo-svgrepo-com 1" clip-path="url(#clip0_54_109)">
<path id="Vector" d="M103.934 102.969C109.47 102.396 113.669 97.6236 113.478 91.8967C113.288 86.1703 108.515 81.5889 102.789 81.5889H102.407C96.4893 81.7799 91.9084 86.7428 92.0994 92.6602C92.2904 95.5236 93.4354 98.0051 95.1533 99.7231C88.6635 112.513 78.7377 121.866 63.849 129.693C53.7322 135.038 43.234 136.947 32.7357 135.611C24.1459 134.465 17.465 130.648 13.265 124.348C7.15722 114.994 6.58476 104.877 11.7387 94.7602C15.3656 87.5063 21.0914 82.1613 24.7184 79.4889C23.9549 77.0074 22.8094 72.808 22.2369 69.7541C-5.44102 89.7973 -2.57755 116.903 5.82128 129.693C12.1201 139.238 24.9094 145.155 39.0346 145.155C42.852 145.155 46.6693 144.773 50.4873 143.819C74.9203 139.046 93.4359 124.539 103.934 102.969ZM137.529 79.2984C123.022 62.3092 101.644 52.9559 77.2107 52.9559H74.1568C72.4389 49.5199 68.8119 47.2289 64.8035 47.2289H64.4215C58.5047 47.4199 53.9238 52.3828 54.1143 58.3008C54.3053 64.0272 59.0771 68.6086 64.8035 68.6086H65.185C69.3844 68.4176 73.0113 65.7451 74.5383 62.1182H77.9742C92.4814 62.1182 106.225 66.3176 118.632 74.526C128.176 80.8254 135.048 89.0338 138.865 98.9596C142.11 106.977 141.919 114.803 138.483 121.485C133.139 131.602 124.168 137.138 112.333 137.138C104.698 137.138 97.4443 134.846 93.6264 133.129C91.527 135.038 87.709 138.091 85.0365 140.001C93.2449 143.818 101.644 145.918 109.661 145.918C127.985 145.918 141.538 135.801 146.692 125.684C152.227 114.612 151.845 95.5236 137.529 79.2984ZM40.5615 106.213C40.7525 111.94 45.5244 116.521 51.2508 116.521H51.6328C57.5502 116.33 62.1311 111.367 61.94 105.449C61.7496 99.7225 56.9771 95.1416 51.2508 95.1416H50.8693C50.4873 95.1416 49.9143 95.1416 49.5334 95.332C41.707 82.3518 38.4621 68.2266 39.6076 52.9553C40.3705 41.502 44.1885 31.5756 50.8693 23.3672C56.4047 16.3043 67.0939 12.8684 74.3478 12.6779C94.5809 12.2959 103.17 37.493 103.743 47.6104C106.225 48.1828 110.424 49.5193 113.287 50.4738C110.996 19.5504 91.9084 3.51562 73.5844 3.51562C56.4047 3.51562 40.5615 15.9234 34.2621 34.2486C25.4818 58.6822 31.2082 82.1613 41.8975 100.678C40.9436 102.013 40.3705 104.113 40.5615 106.213Z" fill="#764ABC"/>
</g>
<defs>
<clipPath id="clip0_54_109">
<rect width="150" height="150" fill="white"/>
</clipPath>
</defs>
</svg>
