<svg xmlns="http://www.w3.org/2000/svg" xmlns:xlink="http://www.w3.org/1999/xlink" fill="#202020" viewBox="0 0 152 151"><use x=".5" y=".5" xlink:href="#A"/><symbol id="A"><g stroke="none"><path fill="#FFF" d="M0 22.5C0 10.035 10.035 0 22.5 0h105C139.965 0 150 10.035 150 22.5v105c0 12.465-10.035 22.5-22.5 22.5h-105C10.035 150 0 139.965 0 127.5z"/><path d="M17.285 79.101l-.879 6.445.879 6.445c0 .586.879.586.879 0l.879-6.445-.879-6.445c0-.879-.879-.879-.879 0zM22.558 75c0-.879-.879-.879-.879 0l-1.465 10.547 1.172 10.254c0 .879 1.172.879 1.172 0l1.172-10.254zm17.285-8.789l-.879 19.336.586 11.719c0 2.344 2.051 2.344 2.051 0l1.172-11.719-1.172-19.336c0-1.465-1.758-1.465-1.758 0zm-9.082 6.445L29.59 85.547l.879 11.719c0 1.758 1.465 1.758 1.465 0l1.172-11.719-1.172-12.891c0-.879-1.172-.879-1.172 0zm20.508 24.609l.879-11.719-.879-25.781c0-1.758-2.051-1.758-2.051 0l-.879 25.781.586 11.719c0 2.344 2.344 2.344 2.344 0zm19.922 0l.586-11.719-.586-29.883c0-2.051-2.93-2.051-2.93 0l-.586 29.883.586 11.719c0 2.344 2.93 2.344 2.93 0zm-9.961 0l.879-11.719-.879-26.074c0-1.758-2.637-1.758-2.637 0l-.586 26.074.586 11.719c0 2.344 2.637 2.344 2.637 0zm-24.316 0l.879-11.719-.879-12.012c0-.879-1.758-.879-1.758 0l-.879 12.012.879 11.719c0 2.051 1.758 2.051 1.758 0zm-9.668 0l1.172-11.719-1.172-12.598c0-.879-1.172-.879-1.172 0l-1.172 12.598 1.172 11.719c0 1.172 1.172 1.172 1.172 0zm36.328-36.621l-.586 24.902.293 11.719c0 2.344 2.93 2.344 2.93 0l.586-11.719-.586-24.902c0-2.051-2.637-2.051-2.637 0zM46.582 97.265l.879-11.719-.879-23.73c0-1.758-2.051-1.758-2.051 0l-.879 23.731.586 11.719c0 2.344 2.344 2.344 2.344 0zm9.668 0l.879-11.719-.879-26.66c0-1.758-2.344-1.758-2.344 0l-.879 26.66.879 11.719c0 2.344 2.344 2.344 2.344 0zm57.422-26.074c-1.465-16.699-18.75-27.539-34.57-21.387-1.172.586-1.465.879-1.465 1.758v45.703c0 .879.586 1.758 1.465 1.758h40.137c7.91 0 14.356-6.445 14.356-14.356 0-10.84-10.254-16.699-19.922-13.477zm-40.43-18.164l-.879 32.52.879 11.719c0 2.344 2.93 2.344 2.93 0l.879-11.719-.879-32.519c0-2.051-2.93-2.051-2.93 0z"/></g></symbol></svg>