<svg width="150" height="150" viewBox="0 0 150 150" fill="none" xmlns="http://www.w3.org/2000/svg">
<g id="typescript-logo 1" clip-path="url(#clip0_54_100)">
<path id="Vector" d="M135.352 0H14.6484C6.55833 0 0 6.55833 0 14.6484V135.352C0 143.442 6.55833 150 14.6484 150H135.352C143.442 150 150 143.442 150 135.352V14.6484C150 6.55833 143.442 0 135.352 0Z" fill="#3178C6"/>
<path id="Vector_2" d="M135.352 0H14.6484C6.55833 0 0 6.55833 0 14.6484V135.352C0 143.442 6.55833 150 14.6484 150H135.352C143.442 150 150 143.442 150 135.352V14.6484C150 6.55833 143.442 0 135.352 0Z" fill="#3178C6"/>
<path id="Vector_3" fill-rule="evenodd" clip-rule="evenodd" d="M92.8532 119.363V134.029C95.2374 135.251 98.0572 136.167 101.313 136.779C104.568 137.39 107.999 137.695 111.606 137.695C115.121 137.695 118.461 137.359 121.625 136.687C124.788 136.015 127.562 134.907 129.947 133.364C132.331 131.821 134.218 129.804 135.609 127.314C137 124.824 137.695 121.746 137.695 118.079C137.695 115.421 137.298 113.091 136.503 111.09C135.708 109.089 134.562 107.309 133.064 105.751C131.567 104.192 129.771 102.794 127.677 101.557C125.583 100.319 123.222 99.1506 120.593 98.0508C118.667 97.2562 116.94 96.4849 115.412 95.7363C113.883 94.9875 112.584 94.2237 111.514 93.4447C110.445 92.6654 109.619 91.8404 109.039 90.9697C108.458 90.0987 108.167 89.1135 108.167 88.0134C108.167 87.0053 108.427 86.0962 108.947 85.2864C109.467 84.4767 110.2 83.7817 111.148 83.2011C112.095 82.6207 113.257 82.1698 114.632 81.849C116.008 81.5282 117.536 81.368 119.217 81.368C120.44 81.368 121.731 81.4597 123.092 81.6428C124.452 81.8262 125.82 82.1089 127.196 82.4906C128.571 82.8727 129.908 83.354 131.208 83.9344C132.507 84.515 133.706 85.1871 134.807 85.9512V72.2473C132.575 71.3918 130.138 70.7578 127.494 70.3453C124.85 69.9328 121.816 69.7266 118.392 69.7266C114.907 69.7266 111.606 70.101 108.488 70.8495C105.371 71.598 102.627 72.7667 100.258 74.3555C97.8891 75.9445 96.017 77.9686 94.6415 80.4284C93.266 82.8879 92.5781 85.8287 92.5781 89.2509C92.5781 93.6202 93.8391 97.3479 96.3609 100.434C98.8825 103.52 102.711 106.132 107.846 108.271C109.864 109.096 111.744 109.906 113.486 110.7C115.228 111.495 116.734 112.32 118.002 113.175C119.271 114.031 120.272 114.963 121.006 115.971C121.739 116.979 122.106 118.125 122.106 119.408C122.106 120.356 121.877 121.234 121.418 122.044C120.96 122.854 120.264 123.556 119.332 124.152C118.4 124.748 117.238 125.214 115.847 125.55C114.456 125.886 112.829 126.054 110.964 126.054C107.785 126.054 104.637 125.496 101.519 124.381C98.4012 123.266 95.5125 121.593 92.8532 119.363ZM68.1973 83.2271H87.0117V71.1914H34.5703V83.2271H53.2928V136.816H68.1973V83.2271Z" fill="white"/>
</g>
<defs>
<clipPath id="clip0_54_100">
<rect width="150" height="150" fill="white"/>
</clipPath>
</defs>
</svg>
